PathFileType	4	(X/Y/Z)	C:/Users/opensim2020/Desktop/walking_exp_matlab/subject03_walking05_straight_02.trc																																																																																																																																					
DataRate	CameraRate	NumFrames	NumMarkers	Units	OrigDataRate	OrigDataStartFrame	OrigNumFrames																																																																																																																																	
100	100	4	45	mm	100	1508	252																																																																																																																																	
Frame#	Time	LFHD			RFHD			LBHD			RBHD			C7			T10			CLAV			STRN			RBAK			LSHO			LUPA			LELB			LFRM			LWRA			LWRB			LFIN			RSHO			RUPA			RELB			RFRM			RWRA			RWRB			RFIN			LASI			RASI			LPSI			RPSI			LTHI			LKNE			LTIB			LANK			LHEE			LTOE			RTHI			RKNE			RTIB			RANK			RHEE			RTOE			*39			*40			*41			*42			*43			*44		
		X1	Y1	Z1	X2	Y2	Z2	X3	Y3	Z3	X4	Y4	Z4	X5	Y5	Z5	X6	Y6	Z6	X7	Y7	Z7	X8	Y8	Z8	X9	Y9	Z9	X10	Y10	Z10	X11	Y11	Z11	X12	Y12	Z12	X13	Y13	Z13	X14	Y14	Z14	X15	Y15	Z15	X16	Y16	Z16	X17	Y17	Z17	X18	Y18	Z18	X19	Y19	Z19	X20	Y20	Z20	X21	Y21	Z21	X22	Y22	Z22	X23	Y23	Z23	X24	Y24	Z24	X25	Y25	Z25	X26	Y26	Z26	X27	Y27	Z27	X28	Y28	Z28	X29	Y29	Z29	X30	Y30	Z30	X31	Y31	Z31	X32	Y32	Z32	X33	Y33	Z33	X34	Y34	Z34	X35	Y35	Z35	X36	Y36	Z36	X37	Y37	Z37	X38	Y38	Z38	X39	Y39	Z39	X40	Y40	Z40	X41	Y41	Z41	X42	Y42	Z42	X43	Y43	Z43	X44	Y44	Z44	X45	Y45	Z45
																																																																																																																																								
32	0.31	-961.81183	1607.1427	-1512.75708	-978.00073	1616.41064	-1380.82471	-1090.21277	1564.31067	-1522.31226	-1100.90698	1573.03418	-1391.60693	-1131.31079	1411.23816	-1456.54358	-1174.15723	1098.08923	-1457.26953	-1011.13306	1331.125	-1450.88977	-972.01501	1165.98706	-1451.23438	-1192.05212	1239.4325	-1356.56653	-1052.41284	1366.71423	-1610.12939	-1093.21631	1168.65027	-1673.07605	-1110.72778	1045.36426	-1678.74097	-1111.28564	915.104	-1673.98499	-1115.7627	797.72205	-1641.19141	-1140.04883	804.54254	-1690.15759	-1145.86011	719.68127	-1674.87988	-1059.47754	1358.79114	-1293.66187	-1023.24994	1142.51733	-1216.86792	-979.44635	1039.05176	-1205.31982	-917.67584	917.37646	-1211.40222	-860.02246	840.80316	-1254.83936	-883.93561	822.91925	-1209.98853	-836.77771	766.79364	-1224.91077	-993.11237	934.83264	-1560.02698	-1018.57343	930.5553	-1324.07959	-1161.03479	949.64874	-1529.34119	-1173.60559	960.49524	-1379.7229	-971.44366	638.435	-1614.92224	-907.13623	475.1738	-1568.38623	-902.65912	282.95224	-1573.44727	-855.80286	76.76531	-1539.31421	-887.6366	34.54228	-1499.92993	-704.98993	67.14702	-1508.21619	-1106.23523	637.07208	-1308.05505	-1121.02551	459.92307	-1354.099	-1204.49084	285.37793	-1367.08337	-1273.15479	83.58174	-1432.28979	-1316.84241	58.73965	-1487.33044	-1135.71289	36.76551	-1436.4342	-1049.11743	1668.30481	-1469.80237	NaN	NaN	NaN	NaN	NaN	NaN	NaN	NaN	NaN	NaN	NaN	NaN	NaN	NaN	NaN
33	0.32	-952.4433	1606.09204	-1513.21814	-968.62439	1615.58484	-1381.35522	-1080.78687	1562.8573	-1522.68005	-1091.31384	1571.71375	-1391.74133	-1121.41907	1410.11792	-1456.86438	-1164.11389	1096.99109	-1458.23804	-1001.16437	1329.92566	-1450.82288	-962.0954	1164.39954	-1450.87292	-1182.60913	1238.52002	-1357.10034	-1042.15234	1365.57666	-1610.29492	-1084.25049	1167.77905	-1673.15662	-1102.59094	1044.57446	-1678.72119	-1104.401	914.32288	-1673.92822	-1109.94751	796.98419	-1640.9458	-1134.12573	803.98511	-1690.09705	-1139.45605	719.37512	-1675.33752	-1049.96509	1357.63049	-1293.8418	-1013.59357	1141.45203	-1216.96948	-969.42261	1038.12549	-1205.52588	-906.67596	917.02863	-1212.27026	-848.33496	841.28064	-1256.2113	-872.02728	822.93811	-1211.375	-824.16699	767.51324	-1226.53357	-982.51752	933.51855	-1560.05261	-1009.47913	929.60321	-1324.14636	-1150.57874	948.39496	-1530.52344	-1164.23999	959.44824	-1381.0365	-963.16193	635.94604	-1614.77393	-899.77185	472.94925	-1566.76807	-889.39886	281.99911	-1571.00146	-834.69397	77.04118	-1536.61011	-865.04022	34.5304	-1497.35266	-683.20837	71.86056	-1505.10815	-1099.17517	636.83075	-1307.55627	-1115.01123	459.54126	-1353.45654	-1200.88391	286.04874	-1366.56311	-1272.42773	84.98021	-1431.72461	-1316.46118	60.98907	-1486.84521	-1135.52271	36.67771	-1436.22522	-1040.06738	1666.92627	-1469.8291	NaN	NaN	NaN	NaN	NaN	NaN	NaN	NaN	NaN	NaN	NaN	NaN	NaN	NaN	NaN
34	0.33	-943.09363	1605.125	-1513.80493	-959.30054	1614.85828	-1381.89697	-1071.39197	1561.49121	-1523.24536	-1081.75757	1570.56689	-1392.13989	-1111.28552	1408.89807	-1457.08948	-1153.9812	1095.95483	-1459.16162	-991.12134	1328.79871	-1450.81726	-951.90717	1163.38989	-1450.56445	-1173.05896	1237.60071	-1357.70496	-1031.67847	1364.46814	-1610.4502	-1074.91772	1166.83191	-1673.25403	-1094.04285	1043.71655	-1678.67749	-1097.00891	913.57538	-1673.8894	-1103.6239	795.75159	-1639.98193	-1127.63843	803.44873	-1690.05591	-1132.44556	718.93945	-1675.57581	-1040.32141	1356.55383	-1294.02991	-1003.89191	1140.50586	-1217.25513	-959.53436	1037.24341	-1205.89441	-895.87512	916.6593	-1213.23413	-836.98767	841.52557	-1257.56042	-860.58984	822.83093	-1212.76001	-812.09955	768.01349	-1228.22437	-971.93915	932.25977	-1560.03784	-1000.24152	928.64758	-1324.21887	-1139.97742	947.19043	-1531.75024	-1154.71155	958.51031	-1382.38855	-954.74176	633.63135	-1614.52356	-892.1308	470.78729	-1564.66748	-876.89771	281.2337	-1568.651	-815.63153	77.95776	-1534.7467	-844.81158	34.83718	-1495.31104	-663.57355	75.80451	-1502.42639	-1091.63721	636.56531	-1307.44299	-1108.78662	459.26712	-1352.81458	-1197.06299	286.76282	-1366.08972	-1271.67908	86.8268	-1431.22437	-1315.96619	63.36884	-1486.22498	-1135.32959	36.60505	-1436.02246	-1030.85486	1669.51794	-1476.44531	NaN	NaN	NaN	NaN	NaN	NaN	NaN	NaN	NaN	NaN	NaN	NaN	NaN	NaN	NaN
35	0.34	-933.6673	1604.23608	-1514.43616	-949.87354	1614.23389	-1382.50659	-1061.71631	1560.10278	-1523.55847	-1072.67236	1569.69165	-1393.40442	-1101.2793	1407.99048	-1457.73303	-1143.71338	1094.94995	-1459.90527	-980.93005	1327.6781	-1450.7627	-941.95856	1162.17358	-1450.28772	-1163.46216	1236.78943	-1358.3894	-1021.13092	1363.34131	-1610.66443	-1065.23901	1165.88025	-1673.37158	-1085.06226	1042.88623	-1678.74158	-1089.11121	912.72754	-1673.7677	-1096.83264	795.60999	-1640.57593	-1120.50134	802.87793	-1690.06702	-1124.84839	718.53528	-1676.02295	-1030.64514	1355.60327	-1294.19336	-994.27856	1139.68396	-1217.61401	-949.76666	1036.4021	-1206.39221	-885.43195	916.27325	-1214.17236	-826.18634	841.79718	-1258.86841	-849.50946	822.66571	-1214.15808	-800.45715	768.52661	-1229.98987	-961.18945	931.26965	-1560.05151	-990.80145	927.76068	-1324.28503	-1129.22119	946.16962	-1532.92957	-1144.98743	957.54242	-1383.64221	-946.21179	631.51324	-1614.03442	-884.38306	468.74918	-1562.56738	-865.10254	280.6369	-1566.53235	-798.72803	78.47457	-1532.81592	-827.17651	35.06017	-1493.66199	-646.34735	78.99133	-1500.25293	-1083.97351	636.3241	-1307.38879	-1102.30823	458.98462	-1352.21619	-1193.07043	287.62415	-1365.54663	-1270.76611	88.67161	-1430.70715	-1315.39441	66.07877	-1485.66028	-1135.13782	36.49847	-1435.78674	-1021.55133	1667.92932	-1477.01489	NaN	NaN	NaN	NaN	NaN	NaN	NaN	NaN	NaN	NaN	NaN	NaN	NaN	NaN	NaN
